<svg width="53" height="74" viewBox="0 0 53 74" fill="none" xmlns="http://www.w3.org/2000/svg">
<path fill-rule="evenodd" clip-rule="evenodd" d="M26.5 0C41.1355 0 53 12.65 53 28.2545C53 30.1593 52.8232 32.02 52.4862 33.819C50.1473 52.6116 26.6393 74 26.6393 74C26.6393 74 6.6337 55.7983 1.69671 38.2239C0.600044 35.1237 0 31.7638 0 28.2545C0 12.65 11.8645 0 26.5 0Z" fill="#3F564C"/>
<path d="M44.1667 28.2543C44.1667 17.8513 36.2571 9.41797 26.5 9.41797C16.743 9.41797 8.83337 17.8513 8.83337 28.2543C8.83337 38.6574 16.743 47.0907 26.5 47.0907C36.2571 47.0907 44.1667 38.6574 44.1667 28.2543Z" fill="white"/>
</svg>
