<?xml version="1.0" encoding="UTF-8"?>
<!DOCTYPE svg PUBLIC "-//W3C//DTD SVG 1.1//EN" "http://www.w3.org/Graphics/SVG/1.1/DTD/svg11.dtd">
<!-- Creator: CorelDRAW -->
<svg xmlns="http://www.w3.org/2000/svg" xml:space="preserve" width="80.4788mm" height="39.1152mm" version="1.1" style="shape-rendering:geometricPrecision; text-rendering:geometricPrecision; image-rendering:optimizeQuality; fill-rule:evenodd; clip-rule:evenodd"
viewBox="0 0 12767.42 6205.36"
 xmlns:xlink="http://www.w3.org/1999/xlink"
 xmlns:xodm="http://www.corel.com/coreldraw/odm/2003">
 <defs>
  <style type="text/css">
   <![CDATA[
    .str1 {stroke:#6F8079;stroke-width:31.73;stroke-miterlimit:22.9256}
    .str0 {stroke:white;stroke-width:31.73;stroke-miterlimit:22.9256}
    .fil1 {fill:#6F8079}
    .fil0 {fill:white}
   ]]>
  </style>
 </defs>
 <g id="Слой_x0020_1">
  <metadata id="CorelCorpID_0Corel-Layer"/>
  <g id="_2892903456736">
   <rect class="fil0 str0" x="15.85" y="17.01" width="12735.69" height="6172.49"/>
   <path class="fil1 str1" d="M11238.61 6189.5l0 -432c-1062.61,-98.23 -1040.4,-558.28 -1694.96,-1358.51l-1310.46 -1749.11c101.69,-100.07 195.48,-200.86 296.06,-305.18 102.34,-106.16 202.6,-202.86 307.96,-309.91l1064.18 -1085.1c351.09,-295.35 509.88,-553.89 1087.83,-566.26l-0.41 -367.54 -2121.71 1.09 -2.25 360.66c222.77,12.61 767.9,93.2 431.1,477.87l-684.36 738.48c-123.66,128.66 -237.17,235.41 -350,362.17 -160.5,180.33 -1300.78,1344.03 -1372.42,1469.1 -231.24,-241.41 -543.31,-370.19 -915.97,-532.88 -591.09,-258.03 -1601.31,-423.09 -2186.52,-714.91 -822.3,-410.06 -690.11,-1310.49 188.77,-1605.36 394.91,-132.5 869.97,-95.2 1235.67,46.67 532.52,206.6 874.16,576.8 1177.72,996.95 71.25,98.61 230.59,345.08 265.44,459.62l397.97 -117.89 -453.62 -1840.33 -302.91 -4.27 -185.85 413.22c-295.65,-162.85 -308.59,-261.1 -802.88,-406.89 -326.76,-96.36 -717.5,-127.23 -1086.1,-81.27 -961.87,119.93 -1938.57,821.3 -1682.62,1883.18 382.85,1588.29 3209.24,1258.26 3833.9,2210.66 184.14,280.77 169.64,661.65 -14.53,944.13 -131.61,201.84 -396.32,404.94 -690.94,517.83 -667.27,255.72 -1454.25,25.46 -1888.85,-317.51 -225.78,-178.17 -428.77,-367.58 -601.85,-608.16 -280.85,-390.34 -356.38,-692.02 -426.29,-800.85l-383.43 73.02c-3.66,55.14 376.32,2107.91 396.86,2147.81l298.58 3.33c15.99,-76.4 165.89,-522.52 198.38,-565.58 148.05,87.65 291.52,228.95 535.96,363.56 184.58,101.63 407.33,191.82 655.91,242.26 948,192.37 2100.52,-89.54 2591.76,-920.21 254.84,-430.95 324.9,-925.21 89.93,-1433.31l515.18 -538.99c73.25,26.86 324.58,420.83 388.15,499.68 192.89,239.31 423.61,585.39 629.59,851.6 87.76,113.41 161.15,221.74 249.15,342.11 42.68,58.41 87.82,118.86 125.66,169.59 114.32,153.27 364.61,446.44 203.73,590.85 -97.87,87.86 -385.09,63.17 -546.45,60.7l-0.81 435.87 2540.74 0z"/>
  </g>
 </g>
</svg>
