<?xml version="1.0" encoding="UTF-8"?>
<!DOCTYPE svg PUBLIC "-//W3C//DTD SVG 1.1//EN" "http://www.w3.org/Graphics/SVG/1.1/DTD/svg11.dtd">
<!-- Creator: CorelDRAW -->
<svg xmlns="http://www.w3.org/2000/svg" xml:space="preserve" width="56.1261mm" height="39.1152mm" version="1.1" style="shape-rendering:geometricPrecision; text-rendering:geometricPrecision; image-rendering:optimizeQuality; fill-rule:evenodd; clip-rule:evenodd"
viewBox="0 0 1497.63 1043.72"
 xmlns:xlink="http://www.w3.org/1999/xlink"
 xmlns:xodm="http://www.corel.com/coreldraw/odm/2003">
 <defs>
  <style type="text/css">
   <![CDATA[
    .str0 {stroke:black;stroke-width:5.34;stroke-miterlimit:22.9256}
    .fil0 {fill:black}
   ]]>
  </style>
 </defs>
 <g id="Слой_x0020_1">
  <metadata id="CorelCorpID_0Corel-Layer"/>
  <path class="fil0 str0" d="M1494.96 1041.05l0 -72.66c-178.73,-16.52 -174.99,-93.9 -285.09,-228.5l-220.41 -294.19c17.1,-16.83 32.88,-33.78 49.8,-51.33 17.21,-17.86 34.08,-34.12 51.8,-52.13l178.99 -182.51c59.05,-49.68 85.76,-93.16 182.97,-95.24l-0.07 -61.82 -356.86 0.18 -0.38 60.66c37.47,2.12 129.16,15.68 72.51,80.38l-115.11 124.21c-20.8,21.64 -39.89,39.6 -58.87,60.92 -27,30.33 -218.79,226.06 -230.84,247.1 -38.89,-40.6 -91.38,-62.27 -154.06,-89.63 -99.42,-43.4 -269.34,-71.16 -367.77,-120.25 -138.31,-68.97 -116.07,-220.42 31.75,-270.02 66.42,-22.29 146.33,-16.01 207.84,7.85 89.57,34.75 147.03,97.02 198.09,167.68 11.98,16.59 38.78,58.04 44.65,77.31l66.94 -19.83 -76.3 -309.54 -50.95 -0.72 -31.26 69.5c-49.73,-27.39 -51.9,-43.92 -135.04,-68.44 -54.96,-16.21 -120.68,-21.4 -182.68,-13.67 -161.78,20.17 -326.06,138.14 -283.01,316.74 64.39,267.15 539.78,211.64 644.85,371.83 30.97,47.22 28.53,111.29 -2.44,158.8 -22.14,33.95 -66.66,68.11 -116.21,87.1 -112.23,43.01 -244.6,4.28 -317.7,-53.4 -37.98,-29.97 -72.12,-61.83 -101.23,-102.29 -47.24,-65.65 -59.94,-116.4 -71.7,-134.7l-64.49 12.28c-0.62,9.28 63.3,354.54 66.75,361.25l50.22 0.56c2.69,-12.85 27.9,-87.89 33.37,-95.13 24.9,14.74 49.03,38.51 90.15,61.15 31.05,17.09 68.51,32.26 110.32,40.75 159.45,32.36 353.3,-15.06 435.92,-154.78 42.86,-72.49 54.65,-155.62 15.13,-241.08l86.65 -90.66c12.32,4.52 54.59,70.78 65.29,84.04 32.44,40.25 71.25,98.46 105.9,143.24 14.76,19.08 27.1,37.3 41.91,57.54 7.18,9.82 14.77,19.99 21.14,28.52 19.23,25.78 61.33,75.09 34.27,99.38 -16.46,14.78 -64.77,10.63 -91.91,10.21l-0.14 73.31 427.34 0z"/>
 </g>
</svg>
